<svg width="512" height="512" viewBox="0 0 512 512" fill="none" xmlns="http://www.w3.org/2000/svg">
<path d="M479.18 91.8971H32.821C14.69 91.8971 0 77.2071 0 59.0771C0 40.9471 14.69 26.2561 32.821 26.2561H479.18C497.31 26.2561 512 40.9461 512 59.0771C512 77.2081 497.31 91.8971 479.18 91.8971Z" fill="#404040"/>
<path d="M295.385 288.821H32.821C14.69 288.821 0 274.13 0 256C0 237.87 14.69 223.179 32.821 223.179H295.385C313.515 223.179 328.206 237.869 328.206 256C328.206 274.131 313.515 288.821 295.385 288.821Z" fill="#404040"/>
<path d="M479.18 288.821H426.667C408.537 288.821 393.846 274.131 393.846 256C393.846 237.869 408.536 223.179 426.667 223.179H479.18C497.31 223.179 512 237.869 512 256C512 274.131 497.31 288.821 479.18 288.821Z" fill="#B3B3B3"/>
<path d="M479.18 485.744H32.821C14.69 485.744 0 471.053 0 452.923C0 434.793 14.69 420.102 32.821 420.102H479.18C497.31 420.102 512 434.792 512 452.923C512 471.053 497.31 485.744 479.18 485.744Z" fill="#404040"/>
</svg>
